<svg width="23" height="23" viewBox="0 0 23 23" fill="none" xmlns="http://www.w3.org/2000/svg">
<path d="M18.2526 10.0968C18.1738 9.41663 17.8484 8.7855 17.3345 8.3158C16.8206 7.84609 16.1515 7.56825 15.446 7.5316V7.33165C15.4466 6.76273 15.3312 6.19936 15.1063 5.67378C14.8815 5.1482 14.5517 4.6708 14.1359 4.26911C13.7209 3.86621 13.2278 3.54672 12.6851 3.32892C12.1423 3.11113 11.5605 2.99934 10.973 3C9.7871 3.00042 8.64992 3.45699 7.81135 4.2694C6.97278 5.08181 6.50151 6.1836 6.50107 7.33252V7.53469C5.80495 7.58262 5.14802 7.86536 4.6447 8.33371C4.14137 8.80206 3.82348 9.42645 3.74599 10.0984L3 16.682C3.00368 17.5648 3.3688 18.41 4.01524 19.0321C4.66168 19.6542 5.53674 20.0023 6.4479 20H15.5523C16.4635 20.0023 17.3383 19.6542 17.9848 19.0321C18.6312 18.41 18.9963 17.5648 19 16.682L18.2526 10.0968ZM7.81435 7.33959C7.81424 6.93776 7.89577 6.53984 8.05442 6.16856C8.21307 5.79729 8.44579 5.45997 8.73904 5.1758C9.03229 4.89162 9.38029 4.66614 9.76348 4.51234C10.1467 4.35854 10.5574 4.27947 10.9722 4.27947C11.3871 4.27909 11.7979 4.35804 12.1812 4.51186C12.5644 4.66567 12.9127 4.89122 13.2058 5.1757C13.4996 5.45956 13.7325 5.79684 13.8914 6.16818C14.0503 6.53951 14.132 6.93761 14.1317 7.33959V7.52521H7.81435V7.33959ZM8.43741 11.8403C8.33319 11.8404 8.22988 11.8206 8.13358 11.782C8.03727 11.7434 7.94981 11.6868 7.87612 11.6154C7.80243 11.544 7.74404 11.4592 7.70421 11.3659C7.66438 11.2726 7.64394 11.1726 7.64405 11.0717C7.64394 10.9707 7.66438 10.8707 7.70421 10.7774C7.74404 10.6841 7.80243 10.5993 7.87612 10.5279C7.94981 10.4565 8.03727 10.3999 8.13358 10.3614C8.22988 10.3228 8.33319 10.303 8.43741 10.3031C8.54177 10.3029 8.64515 10.3225 8.74164 10.3611C8.83813 10.3996 8.92579 10.4561 8.9997 10.5275C9.07361 10.5989 9.13234 10.6837 9.17241 10.777C9.21247 10.8704 9.23306 10.9706 9.23317 11.0717C9.23306 11.1728 9.21247 11.2729 9.17241 11.3662C9.13234 11.4596 9.07361 11.5444 8.9997 11.6158C8.92579 11.6871 8.83813 11.7437 8.74164 11.7822C8.64515 11.8207 8.54177 11.8405 8.43741 11.8403ZM13.5644 11.8403C13.46 11.8405 13.3566 11.8207 13.2602 11.7822C13.1637 11.7437 13.076 11.6871 13.0021 11.6158C12.9282 11.5444 12.8695 11.4596 12.8294 11.3662C12.7893 11.2729 12.7687 11.1728 12.7686 11.0717C12.7687 10.9706 12.7893 10.8704 12.8294 10.777C12.8695 10.6837 12.9282 10.5989 13.0021 10.5275C13.076 10.4561 13.1637 10.3996 13.2602 10.3611C13.3566 10.3225 13.46 10.3029 13.5644 10.3031C13.6686 10.303 13.7717 10.3228 13.868 10.3614C13.9643 10.3999 14.052 10.4565 14.1257 10.5279C14.1994 10.5993 14.2578 10.6841 14.2976 10.7774C14.3374 10.8707 14.3579 10.9707 14.3578 11.0717C14.3579 11.1726 14.3374 11.2726 14.2976 11.3659C14.2578 11.4592 14.1994 11.544 14.1257 11.6154C14.052 11.6868 13.9643 11.7434 13.868 11.782C13.7717 11.8206 13.6686 11.8404 13.5644 11.8403Z" fill="#D5D5D9"/>
<circle cx="8.5" cy="11.5" r="1.5" fill="#9796A1"/>
<circle cx="13.5" cy="11.5" r="1.5" fill="#9796A1"/>
</svg>
